<?xml version="1.0" encoding="utf-8"?>
<!-- Generator: Adobe Illustrator 27.0.0, SVG Export Plug-In . SVG Version: 6.00 Build 0)  -->
<svg version="1.1" id="Camada_1" xmlns="http://www.w3.org/2000/svg" xmlns:xlink="http://www.w3.org/1999/xlink" x="0px" y="0px"
	 viewBox="0 0 147 184" style="enable-background:new 0 0 147 184;" xml:space="preserve">
<style type="text/css">
	.st0{fill:url(#SVGID_1_);}
	.st1{fill:#ED713C;filter:url(#Adobe_OpacityMaskFilter);}
	.st2{mask:url(#mask0_38_11959_00000057131983567371665130000001408929067541678270_);}
	.st3{opacity:0.1;fill:#0D1636;stroke:#0D1636;stroke-width:36;enable-background:new    ;}
	.st4{fill:#FFFFFF;}
	.st5{fill:url(#SVGID_00000109745975716018106390000010120702969922258106_);}
	.st6{fill:none;stroke:#C7C7B6;stroke-width:1.3;stroke-linejoin:bevel;}
	.st7{opacity:0.5;fill:#FFFFFF;enable-background:new    ;}
	.st8{fill:#FC7BFF;}
	.st9{fill:#FC59FF;}
</style>
<g>
	
		<linearGradient id="SVGID_1_" gradientUnits="userSpaceOnUse" x1="67.0093" y1="236.0147" x2="81.5493" y2="-0.8235" gradientTransform="matrix(1 0 0 -1 0 206)">
		<stop  offset="0" style="stop-color:#F32CA3"/>
		<stop  offset="1" style="stop-color:#F93AE6"/>
	</linearGradient>
	<path class="st0" d="M17,0h115c8.3,0,15,6.7,15,15v154c0,8.3-6.7,15-15,15H17c-8.3,0-15-6.7-15-15V15C2,6.7,8.7,0,17,0z"/>
	<defs>
		<filter id="Adobe_OpacityMaskFilter" filterUnits="userSpaceOnUse" x="-139" y="-163" width="437" height="469">
			<feColorMatrix  type="matrix" values="1 0 0 0 0  0 1 0 0 0  0 0 1 0 0  0 0 0 1 0"/>
		</filter>
	</defs>
	
		<mask maskUnits="userSpaceOnUse" x="-139" y="-163" width="437" height="469" id="mask0_38_11959_00000057131983567371665130000001408929067541678270_">
		<path class="st1" d="M17,0h115c8.3,0,15,6.7,15,15v154c0,8.3-6.7,15-15,15H17c-8.3,0-15-6.7-15-15V15C2,6.7,8.7,0,17,0z"/>
	</mask>
	<g class="st2">
		<circle class="st3" cx="-26" cy="193" r="95"/>
		<path class="st3" d="M280-26.5C280,42.3,234.4,92,185,92S90,42.3,90-26.5S135.6-145,185-145S280-95.3,280-26.5z"/>
	</g>
	<path class="st4" d="M99.9,149.3c0,2.1,0.9,3.8,2.8,3.8c1.9,0,2.8-1.7,2.8-3.8c0-1.1-0.2-2-0.7-2.7c-0.5-0.7-1.1-1-2.1-1
		c-0.9,0-1.6,0.3-2.1,1C100.1,147.3,99.9,148.2,99.9,149.3z M104.2,149.3c0,1.7-0.5,2.7-1.6,2.7c-1.1,0-1.6-1-1.6-2.7
		c0-1.7,0.5-2.6,1.6-2.6C103.7,146.7,104.2,147.6,104.2,149.3z M111.7,148.1c0-1.4-1.2-2.5-2.6-2.5c-1.4,0-2.6,1.1-2.6,2.5
		c0,1.4,1.1,2.4,2.4,2.4c0.1,0,0.2,0,0.3,0l-1.7,2.5h1.4l1.8-2.6c0.3-0.4,0.4-0.6,0.6-0.8c0.1-0.2,0.2-0.4,0.3-0.7
		C111.6,148.7,111.7,148.4,111.7,148.1z M110.5,148.1c0,0.4-0.1,0.7-0.4,1c-0.3,0.3-0.6,0.4-1,0.4c-0.4,0-0.7-0.1-1-0.4
		c-0.3-0.3-0.4-0.6-0.4-1s0.1-0.7,0.4-1c0.3-0.3,0.6-0.4,1-0.4c0.4,0,0.7,0.1,1,0.4C110.4,147.4,110.5,147.7,110.5,148.1z
		 M110.9,154.3h1.3l5.8-9.9h-1.3L110.9,154.3z M120.2,152l1.3-1.4c0.5-0.5,0.9-1,1.1-1.4c0.3-0.4,0.4-0.9,0.4-1.4
		c0-1.3-1-2.3-2.4-2.3c-1.5,0-2.4,1.1-2.4,2.3c0,0.2,0,0.4,0.1,0.6h1.2c0-0.2-0.1-0.4-0.1-0.6c0-0.7,0.5-1.3,1.2-1.3
		s1.2,0.5,1.2,1.3c0,0.6-0.4,1.1-1.2,2l-2.6,2.8v0.3h5.2v-1H120.2z M129.5,150.7c0-1.5-1.2-2.3-2.5-2.3c-0.3,0-0.6,0-0.9,0.1v-1.7h3
		v-1h-4.1v3.7h1.7c1.1,0,1.7,0.5,1.7,1.3c0,0.8-0.6,1.4-1.5,1.4c-0.8,0-1.3-0.4-1.8-1.1l-0.8,0.6c0.5,0.9,1.4,1.6,2.6,1.6
		C128.2,153.1,129.5,152.1,129.5,150.7z"/>
	<path class="st4" d="M70.3,107.4l-3,1l0.3,1.2l1.7-0.6v7h1.4v-8.6H70.3z M75.2,114.8l1.5-1.6c0.6-0.6,1.1-1.2,1.4-1.7
		c0.3-0.5,0.5-1,0.5-1.6c0-1.5-1.2-2.7-2.8-2.7c-1.8,0-2.9,1.3-2.9,2.7c0,0.3,0,0.5,0.1,0.7h1.4c0-0.3-0.1-0.5-0.1-0.7
		c0-0.9,0.6-1.6,1.5-1.6s1.4,0.6,1.4,1.5c0,0.7-0.4,1.4-1.4,2.4l-3.1,3.3v0.3h6.1v-1.2H75.2z M86.4,113.8c0-1.1-0.7-1.8-1.9-2.2
		c0.9-0.5,1.5-1.2,1.5-2.1c0-0.7-0.3-1.2-0.8-1.6c-0.5-0.4-1.2-0.6-1.9-0.6c-0.8,0-1.4,0.2-2,0.6c-0.5,0.4-0.8,0.9-0.8,1.6
		c0,0.9,0.5,1.6,1.5,2.1c-1.1,0.4-1.9,1.1-1.9,2.2c0,1.4,1.3,2.4,3.1,2.4C85.1,116.1,86.4,115.2,86.4,113.8z M81.9,109.5
		c0-0.7,0.6-1.1,1.4-1.1c0.8,0,1.4,0.4,1.4,1.1c0,0.6-0.4,1-1.4,1.4C82.3,110.5,81.9,110.1,81.9,109.5z M85,113.7
		c0,0.8-0.6,1.3-1.7,1.3c-1.1,0-1.7-0.5-1.7-1.3c0-0.8,0.6-1.2,1.7-1.6C84.4,112.6,85,112.9,85,113.7z M93.7,110.3c0-1.7-1.4-3-3-3
		c-1.6,0-3,1.3-3,3c0,1.6,1.3,2.9,2.8,2.9c0.1,0,0.3,0,0.4,0l-2.1,2.9h1.6l2.1-3c0.3-0.4,0.5-0.7,0.7-1c0.1-0.2,0.3-0.5,0.4-0.8
		C93.7,110.9,93.7,110.6,93.7,110.3z M92.4,110.2c0,0.5-0.2,0.9-0.5,1.2c-0.3,0.3-0.7,0.5-1.2,0.5c-0.5,0-0.9-0.2-1.2-0.5
		c-0.3-0.3-0.5-0.7-0.5-1.2s0.2-0.9,0.5-1.2c0.3-0.3,0.7-0.5,1.2-0.5c0.5,0,0.9,0.2,1.2,0.5C92.2,109.4,92.4,109.8,92.4,110.2z"/>
	<circle class="st4" cx="51" cy="112" r="2"/>
	<circle class="st4" cx="31" cy="112" r="2"/>
	<circle class="st4" cx="41" cy="112" r="2"/>
	<circle class="st4" cx="21" cy="112" r="2"/>
	
		<radialGradient id="SVGID_00000038404806468094635050000012581778636859791259_" cx="-903.2446" cy="681.7949" r="1" gradientTransform="matrix(-17.4587 13.9861 13.88 17.3263 -25194.8359 964.8909)" gradientUnits="userSpaceOnUse">
		<stop  offset="0" style="stop-color:#FFFFFF"/>
		<stop  offset="1" style="stop-color:#DDDCDA"/>
	</radialGradient>
	<path style="fill:url(#SVGID_00000038404806468094635050000012581778636859791259_);" d="M24,137h23c2.8,0,5,2.2,5,5v12
		c0,2.8-2.2,5-5,5H24c-2.8,0-5-2.2-5-5v-12C19,139.2,21.2,137,24,137z"/>
	<path class="st6" d="M35.5,137.2l-3.7,5.7c0,0,1.5,5,0,9.3l3.7,6.5l3.7-6.5c0,0-1.5-3.6,0-9.3L35.5,137.2z"/>
	<path class="st6" d="M19,143.2h12.8"/>
	<path class="st6" d="M38.8,143.2H52"/>
	<path class="st6" d="M19,152h12.8"/>
	<path class="st6" d="M38.8,152H52"/>
	<path class="st7" d="M19.5,91c0,2.3,1.9,4.1,4.2,4.1c1.5,0,2.7-0.7,3.4-1.8l-1-0.7c-0.6,0.9-1.4,1.4-2.4,1.4
		c-1.6,0-2.9-1.2-2.9-2.9s1.2-2.9,2.9-2.9c1,0,1.9,0.5,2.4,1.4l1-0.7c-0.7-1.1-1.9-1.8-3.4-1.8C21.4,86.9,19.5,88.8,19.5,91z
		 M31.9,89.1c-0.1,0-0.3-0.1-0.5-0.1c-0.7,0-1.3,0.3-1.7,0.8v-0.8h-1.2V95h1.3v-3.1c0-1,0.7-1.6,1.7-1.6h0.4V89.1z M38.2,92.5
		c0.1-0.3,0.1-0.5,0.1-0.8c0-1.5-1.2-2.7-2.7-2.7c-1.7,0-3.1,1.4-3,3.1c0,1.7,1.4,3.1,3.2,3.1c0.9,0,1.7-0.3,2.4-0.9l-0.6-0.9
		c-0.5,0.5-1.1,0.7-1.7,0.7c-1,0-1.8-0.6-1.9-1.5H38.2z M33.8,91.5c0.2-0.9,0.9-1.4,1.7-1.4c0.8,0,1.5,0.5,1.5,1.4H33.8z M44.2,86
		v3.8c-0.4-0.5-1.2-0.9-2-0.9c-1.6,0-2.9,1.4-2.9,3.1c0,1.7,1.2,3.1,2.9,3.1c0.9,0,1.6-0.4,2.1-1V95h1.2v-9H44.2z M44.2,92.1
		c0,1.3-0.9,1.9-1.8,1.9c-1,0-1.8-0.8-1.8-1.9c0-1.1,0.8-1.9,1.8-1.9C43.4,90.1,44.2,90.8,44.2,92.1z M47.3,95h1.3v-5.9h-1.3V95z
		 M47.1,86.9c0,0.5,0.4,0.8,0.9,0.8c0.5,0,0.9-0.4,0.9-0.8c0-0.5-0.4-0.8-0.9-0.8C47.5,86.1,47.1,86.4,47.1,86.9z M53.9,93.9
		c-0.3,0-0.6,0.1-0.8,0.1c-0.8,0-1.2-0.3-1.2-1v-2.8h1.8v-1.1H52v-1.5h-1.3v1.5h-1v1.1h1v2.9c0,1.4,0.8,2.1,2.2,2.1
		c0.3,0,0.6,0,1-0.1V93.9z M58.1,91c0,2.3,1.9,4.1,4.2,4.1c1.5,0,2.7-0.7,3.4-1.8l-1-0.7c-0.6,0.9-1.4,1.4-2.4,1.4
		c-1.6,0-2.9-1.2-2.9-2.9s1.2-2.9,2.9-2.9c1,0,1.9,0.5,2.4,1.4l1-0.7c-0.7-1.1-1.9-1.8-3.4-1.8C60,86.9,58.1,88.8,58.1,91z
		 M71.8,91.4c0-1.6-1-2.5-2.4-2.5c-1,0-1.9,0.4-2.5,1.3l0.7,0.7c0.5-0.6,1-0.9,1.6-0.9c0.8,0,1.3,0.4,1.3,1.3v0.4h-1.7
		c-1.3,0-2.2,0.7-2.2,1.7c0,1,0.8,1.7,2.1,1.7c0.8,0,1.5-0.3,1.9-0.8V95h1.2V91.4z M70.5,92.8c0,0.8-0.7,1.4-1.5,1.4
		c-0.6,0-1-0.3-1-0.8c0-0.5,0.4-0.7,1-0.7h1.5V92.8z M76.9,89.1c-0.1,0-0.3-0.1-0.5-0.1c-0.7,0-1.3,0.3-1.7,0.8v-0.8h-1.2V95h1.3
		v-3.1c0-1,0.7-1.6,1.7-1.6h0.4V89.1z M82.4,86v3.8c-0.4-0.5-1.2-0.9-2-0.9c-1.6,0-2.9,1.4-2.9,3.1c0,1.7,1.2,3.1,2.9,3.1
		c0.9,0,1.6-0.4,2.1-1V95h1.2v-9H82.4z M82.4,92.1c0,1.3-0.9,1.9-1.8,1.9c-1,0-1.8-0.8-1.8-1.9c0-1.1,0.8-1.9,1.8-1.9
		C81.5,90.1,82.4,90.8,82.4,92.1z"/>
	<path class="st8" d="M35.4,23h12.2v21.9H35.4V23z"/>
	<path class="st9" d="M36.2,33.9c0-4.4,2.1-8.4,5.3-10.9c-2.4-1.9-5.3-3-8.6-3C25.2,20,19,26.2,19,33.9c0,7.7,6.2,13.9,13.9,13.9
		c3.2,0,6.2-1.1,8.6-3C38.3,42.3,36.2,38.3,36.2,33.9L36.2,33.9z"/>
	<path class="st9" d="M64,33.9c0,7.7-6.2,13.9-13.9,13.9c-3.2,0-6.2-1.1-8.6-3c3.2-2.5,5.3-6.5,5.3-10.9s-2.1-8.4-5.3-10.9
		c2.4-1.9,5.3-3,8.6-3C57.8,20,64,26.3,64,33.9L64,33.9z"/>
</g>
</svg>
