<?xml version="1.0" encoding="utf-8"?>
<!-- Generator: Adobe Illustrator 27.0.0, SVG Export Plug-In . SVG Version: 6.00 Build 0)  -->
<svg version="1.1" id="Camada_1" xmlns="http://www.w3.org/2000/svg" xmlns:xlink="http://www.w3.org/1999/xlink" x="0px" y="0px"
	 viewBox="0 0 146.6 184" style="enable-background:new 0 0 146.6 184;" xml:space="preserve">
<style type="text/css">
	.sb0{fill:url(#SVGID_1_);}
	.sb1{fill:#ED713C;filter:url(#Adobe_OpacityMaskFilter);}
	.sb2{mask:url(#mask0_38_11928_00000127006372920976641080000011708427715747795584_);}
	.sb3{opacity:0.1;fill:#0D1636;stroke:#0D1636;stroke-width:36;enable-background:new    ;}
	.sb4{fill:#FFFFFF;}
	.sb5{fill:url(#SVGID_00000172425510975095948890000011940383711915179155_);}
	.sb6{fill:none;stroke:#C7C7B6;stroke-width:1.3;stroke-linejoin:bevel;}
	.sb7{opacity:0.5;fill:#FFFFFF;enable-background:new    ;}
	.sb8{fill:#8C9FE2;}
	.sb9{fill:#97A0CE;}
</style>
<g>
	
		<linearGradient id="SVGID_1_" gradientUnits="userSpaceOnUse" x1="38.7826" y1="238.4783" x2="106.6296" y2="-4.7853" gradientTransform="matrix(1 0 0 -1 0 206)">
		<stop  offset="0" style="stop-color:#BDCBFD"/>
		<stop  offset="0.2031" style="stop-color:#B3C0EC"/>
		<stop  offset="1" style="stop-color:#292D39"/>
	</linearGradient>
	<path class="sb0" d="M16,0h115c8.3,0,15,6.7,15,15v154c0,8.3-6.7,15-15,15H16c-8.3,0-15-6.7-15-15V15C1,6.7,7.7,0,16,0z"/>
	<defs>
		<filter id="Adobe_OpacityMaskFilter" filterUnits="userSpaceOnUse" x="-140" y="-163" width="437" height="469">
			<feColorMatrix  type="matrix" values="1 0 0 0 0  0 1 0 0 0  0 0 1 0 0  0 0 0 1 0"/>
		</filter>
	</defs>
	
		<mask maskUnits="userSpaceOnUse" x="-140" y="-163" width="437" height="469" id="mask0_38_11928_00000127006372920976641080000011708427715747795584_">
		<path class="sb1" d="M16,0h115c8.3,0,15,6.7,15,15v154c0,8.3-6.7,15-15,15H16c-8.3,0-15-6.7-15-15V15C1,6.7,7.7,0,16,0z"/>
	</mask>
	<g class="sb2">
		<circle class="sb3" cx="-27" cy="193" r="95"/>
		<path class="sb3" d="M279-26.5C279,42.3,233.4,92,184,92S89,42.3,89-26.5S134.6-145,184-145S279-95.3,279-26.5z"/>
	</g>
	<path class="sb4" d="M102,145.7l-2.5,0.8l0.3,1l1.5-0.5v5.9h1.2v-7.3H102z M106.2,152l1.3-1.4c0.5-0.5,0.9-1,1.1-1.4
		c0.3-0.4,0.4-0.9,0.4-1.4c0-1.3-1-2.3-2.4-2.3c-1.5,0-2.4,1.1-2.4,2.3c0,0.2,0,0.4,0.1,0.6h1.2c0-0.2-0.1-0.4-0.1-0.6
		c0-0.7,0.5-1.3,1.2-1.3s1.2,0.5,1.2,1.3c0,0.6-0.4,1.1-1.2,2l-2.6,2.8v0.3h5.2v-1H106.2z M109.9,154.3h1.3l5.8-9.9h-1.3
		L109.9,154.3z M119.2,152l1.3-1.4c0.5-0.5,0.9-1,1.1-1.4c0.3-0.4,0.4-0.9,0.4-1.4c0-1.3-1-2.3-2.4-2.3c-1.5,0-2.4,1.1-2.4,2.3
		c0,0.2,0,0.4,0.1,0.6h1.2c0-0.2-0.1-0.4-0.1-0.6c0-0.7,0.5-1.3,1.2-1.3s1.2,0.5,1.2,1.3c0,0.6-0.4,1.1-1.2,2l-2.6,2.8v0.3h5.2v-1
		H119.2z M128.8,150.7h-1v-2.2h-1.2v2.2h-2.2l2.1-5h-1.2l-2.3,5.7v0.3h3.6v1.3h1.2v-1.3h1V150.7z"/>
	<path class="sb4" d="M69.1,114.8l1.5-1.6c0.6-0.6,1.1-1.2,1.4-1.7c0.3-0.5,0.5-1,0.5-1.6c0-1.5-1.2-2.7-2.8-2.7
		c-1.8,0-2.9,1.3-2.9,2.7c0,0.3,0,0.5,0.1,0.7h1.4c0-0.3-0.1-0.5-0.1-0.7c0-0.9,0.6-1.6,1.5-1.6c0.9,0,1.4,0.6,1.4,1.5
		c0,0.7-0.4,1.4-1.4,2.4l-3.1,3.3v0.3h6.1v-1.2H69.1z M80.5,113.3h-1.2v-2.6H78v2.6h-2.6l2.4-5.9h-1.4l-2.7,6.7v0.4H78v1.5h1.4v-1.5
		h1.2V113.3z M87.4,113.2c0-1.6-1.3-2.9-2.8-2.9c-0.1,0-0.3,0-0.4,0l2.1-2.9h-1.6l-2.1,3c-0.3,0.4-0.5,0.8-0.7,1
		c-0.1,0.2-0.3,0.5-0.4,0.8c-0.1,0.3-0.1,0.6-0.1,0.9c0,1.7,1.4,3,3,3C86,116.1,87.4,114.9,87.4,113.2z M86,113.2
		c0,0.5-0.2,0.9-0.5,1.2c-0.3,0.3-0.7,0.5-1.2,0.5c-0.5,0-0.9-0.2-1.2-0.5c-0.3-0.3-0.5-0.7-0.5-1.2s0.2-0.9,0.5-1.2
		c0.3-0.3,0.7-0.5,1.2-0.5c0.5,0,0.9,0.2,1.2,0.5C85.9,112.3,86,112.7,86,113.2z M94.9,113.8c0-1.1-0.7-1.8-1.9-2.2
		c0.9-0.5,1.5-1.2,1.5-2.1c0-0.7-0.3-1.2-0.8-1.6c-0.5-0.4-1.2-0.6-1.9-0.6c-0.8,0-1.4,0.2-2,0.6c-0.5,0.4-0.8,0.9-0.8,1.6
		c0,0.9,0.5,1.6,1.5,2.1c-1.1,0.4-1.9,1.1-1.9,2.2c0,1.4,1.3,2.4,3.1,2.4C93.6,116.1,94.9,115.2,94.9,113.8z M90.3,109.5
		c0-0.7,0.6-1.1,1.4-1.1c0.8,0,1.4,0.4,1.4,1.1c0,0.6-0.4,1-1.4,1.4C90.8,110.5,90.3,110.1,90.3,109.5z M93.5,113.7
		c0,0.8-0.6,1.3-1.7,1.3c-1.1,0-1.7-0.5-1.7-1.3c0-0.8,0.6-1.2,1.7-1.6C92.9,112.6,93.5,112.9,93.5,113.7z"/>
	<circle class="sb4" cx="50" cy="112" r="2"/>
	<circle class="sb4" cx="30" cy="112" r="2"/>
	<circle class="sb4" cx="40" cy="112" r="2"/>
	<circle class="sb4" cx="20" cy="112" r="2"/>
	
		<radialGradient id="SVGID_00000022534492203509437690000001400934863977871547_" cx="-904.2446" cy="681.7949" r="1" gradientTransform="matrix(-17.4587 13.9861 13.88 17.3263 -25213.293 978.877)" gradientUnits="userSpaceOnUse">
		<stop  offset="0" style="stop-color:#FFFFFF"/>
		<stop  offset="1" style="stop-color:#DDDCDA"/>
	</radialGradient>
	<path style="fill:url(#SVGID_00000022534492203509437690000001400934863977871547_);" d="M23,137h23c2.8,0,5,2.2,5,5v12
		c0,2.8-2.2,5-5,5H23c-2.8,0-5-2.2-5-5v-12C18,139.2,20.2,137,23,137z"/>
	<path class="sb6" d="M34.5,137.2l-3.7,5.7c0,0,1.5,5,0,9.3l3.7,6.5l3.7-6.5c0,0-1.5-3.6,0-9.3L34.5,137.2z"/>
	<path class="sb6" d="M18,143.2h12.8"/>
	<path class="sb6" d="M37.8,143.2H51"/>
	<path class="sb6" d="M18,152h12.8"/>
	<path class="sb6" d="M37.8,152H51"/>
	<path class="sb7" d="M18.5,91c0,2.3,1.9,4.1,4.2,4.1c1.5,0,2.7-0.7,3.4-1.8l-1-0.7c-0.6,0.9-1.4,1.4-2.4,1.4
		c-1.6,0-2.9-1.2-2.9-2.9s1.2-2.9,2.9-2.9c1,0,1.9,0.5,2.4,1.4l1-0.7c-0.7-1.1-1.9-1.8-3.4-1.8C20.4,86.9,18.5,88.8,18.5,91z
		 M30.9,89.1c-0.1,0-0.3-0.1-0.5-0.1c-0.7,0-1.3,0.3-1.7,0.8v-0.8h-1.2V95h1.3v-3.1c0-1,0.7-1.6,1.7-1.6h0.4V89.1z M37.2,92.5
		c0.1-0.3,0.1-0.5,0.1-0.8c0-1.5-1.2-2.7-2.7-2.7c-1.7,0-3.1,1.4-3,3.1c0,1.7,1.4,3.1,3.2,3.1c0.9,0,1.7-0.3,2.4-0.9l-0.6-0.9
		c-0.5,0.5-1.1,0.7-1.7,0.7c-1,0-1.8-0.6-1.9-1.5H37.2z M32.8,91.5c0.2-0.9,0.9-1.4,1.7-1.4c0.8,0,1.5,0.5,1.5,1.4H32.8z M43.2,86
		v3.8c-0.4-0.5-1.2-0.9-2-0.9c-1.6,0-2.9,1.4-2.9,3.1c0,1.7,1.2,3.1,2.9,3.1c0.9,0,1.6-0.4,2.1-1V95h1.2v-9H43.2z M43.2,92.1
		c0,1.3-0.9,1.9-1.8,1.9c-1,0-1.8-0.8-1.8-1.9c0-1.1,0.8-1.9,1.8-1.9C42.4,90.1,43.2,90.8,43.2,92.1z M46.3,95h1.3v-5.9h-1.3V95z
		 M46.1,86.9c0,0.5,0.4,0.8,0.9,0.8c0.5,0,0.9-0.4,0.9-0.8c0-0.5-0.4-0.8-0.9-0.8C46.5,86.1,46.1,86.4,46.1,86.9z M52.9,93.9
		c-0.3,0-0.6,0.1-0.8,0.1c-0.8,0-1.2-0.3-1.2-1v-2.8h1.8v-1.1H51v-1.5h-1.3v1.5h-1v1.1h1v2.9c0,1.4,0.8,2.1,2.2,2.1
		c0.3,0,0.6,0,1-0.1V93.9z M57.1,91c0,2.3,1.9,4.1,4.2,4.1c1.5,0,2.7-0.7,3.4-1.8l-1-0.7c-0.6,0.9-1.4,1.4-2.4,1.4
		c-1.6,0-2.9-1.2-2.9-2.9s1.2-2.9,2.9-2.9c1,0,1.9,0.5,2.4,1.4l1-0.7c-0.7-1.1-1.9-1.8-3.4-1.8C59,86.9,57.1,88.8,57.1,91z
		 M70.8,91.4c0-1.6-1-2.5-2.4-2.5c-1,0-1.9,0.4-2.5,1.3l0.7,0.7c0.5-0.6,1-0.9,1.6-0.9c0.8,0,1.3,0.4,1.3,1.3v0.4h-1.7
		c-1.3,0-2.2,0.7-2.2,1.7c0,1,0.8,1.7,2.1,1.7c0.8,0,1.5-0.3,1.9-0.8V95h1.2V91.4z M69.5,92.8c0,0.8-0.7,1.4-1.5,1.4
		c-0.6,0-1-0.3-1-0.8c0-0.5,0.4-0.7,1-0.7h1.5V92.8z M75.9,89.1c-0.1,0-0.3-0.1-0.5-0.1c-0.7,0-1.3,0.3-1.7,0.8v-0.8h-1.2V95h1.3
		v-3.1c0-1,0.7-1.6,1.7-1.6h0.4V89.1z M81.4,86v3.8c-0.4-0.5-1.2-0.9-2-0.9c-1.6,0-2.9,1.4-2.9,3.1c0,1.7,1.2,3.1,2.9,3.1
		c0.9,0,1.6-0.4,2.1-1V95h1.2v-9H81.4z M81.4,92.1c0,1.3-0.9,1.9-1.8,1.9c-1,0-1.8-0.8-1.8-1.9c0-1.1,0.8-1.9,1.8-1.9
		C80.5,90.1,81.4,90.8,81.4,92.1z"/>
	<path class="sb8" d="M34.4,23h12.2v21.9H34.4V23z"/>
	<path class="sb9" d="M35.2,33.9c0-4.4,2.1-8.4,5.3-10.9c-2.4-1.9-5.3-3-8.6-3C24.2,20,18,26.2,18,33.9c0,7.7,6.2,13.9,13.9,13.9
		c3.2,0,6.2-1.1,8.6-3C37.3,42.3,35.2,38.3,35.2,33.9z"/>
	<path class="sb9" d="M63,33.9c0,7.7-6.2,13.9-13.9,13.9c-3.2,0-6.2-1.1-8.6-3c3.2-2.5,5.3-6.5,5.3-10.9s-2.1-8.4-5.3-10.9
		c2.4-1.9,5.3-3,8.6-3C56.8,20,63,26.3,63,33.9L63,33.9z"/>
</g>
</svg>
